# xmcd
#
# Track frame offsets:
#	150
#	13227
#	25865
#	48256
#	64636
#	79105
#	93070
#	105399
#	118828
#	137180
#	156353
#	171674
#
# Disc length: 2512 seconds
#
# Revision: 0
# Processed by: cddbd v1.5.2PL0 Copyright (c) Steve Scherf et al.
# Submitted via: audiograbber 1.83.01
#
DISCID=9a09ce0c
DTITLE=Elton Saldanha - Caborteiro Coração
DYEAR=1900
DGENRE=Regionalista
TTITLE0=Caborteiro Coração
TTITLE1=Prosa de Campo
TTITLE2=Últimas Carretas
TTITLE3=Parceiros
TTITLE4=Piá Benício
TTITLE5=Penando
TTITLE6=Bailanta do Tio Flôr
TTITLE7=Pelas Estradas
TTITLE8=Clarim Campeiro
TTITLE9=Milonga
TTITLE10=Morena Rosa
TTITLE11=Chiquitita
EXTD=
EXTT0=
EXTT1=
EXTT2=
EXTT3=
EXTT4=
EXTT5=
EXTT6=
EXTT7=
EXTT8=
EXTT9=
EXTT10=
EXTT11=
PLAYORDER=
